<svg width="800" height="600" xmlns="http://www.w3.org/2000/svg">

 <g>
  <title>Layer 1</title>
  <path d="m191,168.5c1,0 2.02852,0.9449 4,2c7.10829,3.80424 17.37361,12.63324 37,33c26.51379,27.51396 54.21826,58.15079 79,95c21.05878,31.31339 37.1991,63.89819 54,97c12.14435,23.92728 21,41 27,53c4,8 6.33749,12.31 8,15c0.7435,1.203 2,1 2,2c0,0 0.29291,0.70709 1,0c0.70709,-0.70709 -0.98401,-5.24991 1,-11c4.08688,-11.84473 17.96344,-30.02631 41,-62c25.95883,-36.02969 49.61871,-69.26816 68,-95c13.71841,-19.20432 23.79703,-33.15631 30,-41c4.84467,-6.12611 8.34619,-9.70546 10,-12c1.30743,-1.814 1.87769,-4.06601 3,-6c1.80969,-3.11848 3,-5 5,-7c1,-1 1,-2 2,-2c0,0 0,0 0,0c0,1 0,1 0,1c0,0 -1,1 0,1c1,0 0,-1 0,-2c0,-1 0.69257,-2.186 2,-4c1.65381,-2.29454 5.72961,-5.22885 10,-10c4.71582,-5.26884 10.73578,-12.23541 17,-19c5.76532,-6.22585 10,-10 13,-13c2,-2 3,-3 4,-3c0,0 0,0 0,0l0,1" id="svg_1" stroke="#000" fill="none"/>
 </g>
</svg>