<svg xmlns="http://www.w3.org/2000/svg" version="1.1" class="drawSvg" width="720" height="480"><rect id="bg" width="100%" height="100%" fill="#EAEAEA"/><path d="M183,184L184,184L186,185L193,189L208,198L228,213L248,231L268,251L286,272L303,290L316,303L327,314L335,322L340,326L343,329L345,331L346,332L347,332L348,333L348,333L348,333L348,333L349,333L349,333L349,333L349,333L349,333L349,333L349,333L350,334L350,334L351,334L351,334L352,334L352,335L353,335L353,335L354,335L354,335L354,335L354,335L354,334L354,334L355,332L358,328L367,319L384,305L405,288L425,272L442,260L456,248L467,240L474,235L479,231L483,229L485,227L486,226L487,226L488,225L489,225L490,224L490,224L491,224L491,224L491,223L491,223L492,223L492,223L493,222L496,220L500,217L504,215L507,213L510,212L511,212L512,212L512,211L512,211" fill="none" stroke-linecap="round" stroke-linejoin="round" stroke="#FFE500" stroke-width="8"/></svg>